<svg xmlns="http://www.w3.org/2000/svg" viewBox="0 0 38 38"><line x1="18.45" y1="16.18" x2="36.48" y2="16.18" fill="none" stroke="#00315a" stroke-linecap="round" stroke-linejoin="round" stroke-width="1.5"/><path d="M15.89,32.74H36.48" fill="none" stroke="#00315a" stroke-linecap="round" stroke-width="1.5"/><circle cx="9.83" cy="32.94" r="1.75" fill="#df5658"/><path d="M15.89,24.78H36.48" fill="none" stroke="#00315a" stroke-linecap="round" stroke-width="1.5"/><circle cx="9.83" cy="24.98" r="1.75" fill="#df5658"/><path d="M16.07,18.77H1.48V9.85l.09-.19L2.35,7.9l.27-.59H7.56l.29.31.84.88h7.38V18.77Z" fill="#fff"/><path d="M3.26,8.31l-.78,1.76v7.7H15.07V9.5H8.26L7.13,8.31H3.26m0-2H7.13a2,2,0,0,1,1.45.63l.54.56h6a2,2,0,0,1,2,2v8.27a2,2,0,0,1-2,2H2.48a2,2,0,0,1-2-2v-7.7a2,2,0,0,1,.17-.82l.79-1.76A2,2,0,0,1,3.26,6.31Z" fill="#df5658"/></svg>