<svg xmlns="http://www.w3.org/2000/svg" viewBox="0 0 38 38"><path d="M22.58,6.28,14,7.89,5.4,6.28A1.77,1.77,0,0,0,3.5,7.92a1.13,1.13,0,0,0,0,.26V20.51c0,1,.8,1.65,1.9,1.9L14,24l8.59-1.61c1.1-.26,1.91-.86,1.91-1.9V8.18a1.79,1.79,0,0,0-1.66-1.9A1,1,0,0,0,22.58,6.28Zm0,14.23L15,22.12V9.79l7.63-1.62ZM13,22.12,5.4,20.51V8.18L13,9.79Z" fill="#374753" opacity="0.66" style="isolation:isolate"/><line x1="6.67" y1="11.85" x2="11.91" y2="12.6" fill="none" stroke="#707070" stroke-width="0.75" opacity="0.49" style="isolation:isolate"/><line x1="15.66" y1="17.09" x2="20.9" y2="16.34" fill="none" stroke="#707070" stroke-width="0.75" opacity="0.49" style="isolation:isolate"/><line x1="15.66" y1="14.84" x2="20.9" y2="14.1" fill="none" stroke="#707070" stroke-width="0.75" opacity="0.49" style="isolation:isolate"/><line x1="15.66" y1="12.6" x2="20.9" y2="11.85" fill="none" stroke="#707070" stroke-width="0.75" opacity="0.49" style="isolation:isolate"/><circle cx="21.28" cy="20.84" r="8.62" fill="#fff"/><path d="M19.46,17.74a2.88,2.88,0,0,1,5.6,1c0,1.92-2.89,2.88-2.89,2.88" fill="none" stroke="#df5658" stroke-linecap="round" stroke-linejoin="round" stroke-width="2.25"/><path d="M22.25,25.43h0" fill="none" stroke="#df5658" stroke-linecap="round" stroke-linejoin="round" stroke-width="2.25"/><path d="M31,20.8a9,9,0,1,1-8.95-9h0A9,9,0,0,1,31,20.8Z" fill="none" stroke="#002e5f" stroke-linecap="round" stroke-linejoin="round" stroke-width="2.25"/><path d="M33.19,32l-4.87-4.87" fill="none" stroke="#002e5f" stroke-linecap="round" stroke-linejoin="round" stroke-width="2.25"/><line x1="6.67" y1="14.1" x2="11.91" y2="14.84" fill="none" stroke="#707070" stroke-width="0.75" opacity="0.49" style="isolation:isolate"/><line x1="6.67" y1="16.34" x2="11.91" y2="17.09" fill="none" stroke="#707070" stroke-width="0.75" opacity="0.49" style="isolation:isolate"/></svg>