<svg xmlns="http://www.w3.org/2000/svg" xmlns:xlink="http://www.w3.org/1999/xlink" viewBox="0 0 38 38"><defs><clipPath id="a"><path d="M19.66,29.49H34.14a1.27,1.27,0,0,0,1.39-1V6.13a1.25,1.25,0,0,0-1.39-1H2.25A1.2,1.2,0,0,0,1,6.13V28.47a1.26,1.26,0,0,0,1.4,1H16.87" fill="none"/></clipPath></defs><rect x="2.5" y="5" width="33" height="24" fill="#fff"/><g clip-path="url(#a)"><path d="M33.67,13.4A2.07,2.07,0,0,1,35,11.47a8.28,8.28,0,0,0-1-2.4,2.09,2.09,0,0,1-.85.18,2.07,2.07,0,0,1-2.07-2.07,2,2,0,0,1,.18-.84,8,8,0,0,0-2.4-1,2.06,2.06,0,0,1-2.67,1.2A2.09,2.09,0,0,1,25,5.34a8.09,8.09,0,0,0-2.39,1,2.07,2.07,0,0,1-1.9,2.91,2,2,0,0,1-.84-.18,8.51,8.51,0,0,0-1,2.4,2.07,2.07,0,0,1,0,3.87,8.3,8.3,0,0,0,1,2.4,2.07,2.07,0,0,1,2.73,1.05,2,2,0,0,1,0,1.68,8.3,8.3,0,0,0,2.4,1,2.07,2.07,0,0,1,3.86,0,8,8,0,0,0,2.4-1,2.07,2.07,0,0,1,1.06-2.73,2.11,2.11,0,0,1,1.67,0,8.3,8.3,0,0,0,1-2.4A2.08,2.08,0,0,1,33.67,13.4ZM27,16.76a3.36,3.36,0,1,1,3.36-3.36A3.36,3.36,0,0,1,27,16.76Z" fill="none" stroke="#df5658" stroke-miterlimit="10" stroke-width="0.98"/><ellipse cx="8.35" cy="16.08" rx="2.58" ry="2.54" fill="#fff" stroke="#00315a" stroke-miterlimit="10" stroke-width="0.81"/><path d="M12,22.13c0,1,0,6.16-.63,6.83s-2.11.63-3.16.63C7,29.59,5.72,29.84,5,29c-.5-.63-.63-6-.63-6.83,0-2.06,1.69-2.49,3.78-2.49S12,20.07,12,22.13Z" fill="#fff" stroke="#00315a" stroke-miterlimit="10" stroke-width="0.81"/><ellipse cx="15.35" cy="18.46" rx="2.58" ry="2.54" fill="#fff" stroke="#00315a" stroke-miterlimit="10" stroke-width="0.81"/><path d="M19,24.51c0,1,.05,6.17-.63,6.84s-2.11.62-3.15.62c-1.22,0-2.46.25-3.16-.62-.5-.63-.63-6-.63-6.84,0-2.06,1.7-2.49,3.79-2.49S19,22.45,19,24.51Z" fill="#fff" stroke="#00315a" stroke-miterlimit="10" stroke-width="0.81"/></g><path d="M35.19,4.85H2.66a1.21,1.21,0,0,0-1.27,1v22.8a1.28,1.28,0,0,0,1.43,1H17.58v4.14H10.79c-.79,0-1.39.52-1.35,1.09a1.36,1.36,0,0,0,1.5,1H27.1a1.58,1.58,0,0,0,1.24-.52.77.77,0,0,0,0-1,1.61,1.61,0,0,0-1.24-.51H20.42v-4.2H35.19a1.28,1.28,0,0,0,1.42-1V5.88A1.25,1.25,0,0,0,35.19,4.85Zm.1,21.46a2.16,2.16,0,0,1-2.17,2.14H4.88a2.16,2.16,0,0,1-2.17-2.14V8.09A2.16,2.16,0,0,1,4.88,6H33.12a2.16,2.16,0,0,1,2.17,2.14Z" fill="#00315a"/></svg>