<svg xmlns="http://www.w3.org/2000/svg" xmlns:xlink="http://www.w3.org/1999/xlink" viewBox="0 0 1603 1394"><defs><clipPath id="a"><rect x="-0.29" width="1603" height="1396" fill="none"/></clipPath><linearGradient id="b" x1="-664.14" y1="42.08" x2="-664.14" y2="40.13" gradientTransform="matrix(0, 1814, 2740, 0, -109957.37, 1205661)" gradientUnits="userSpaceOnUse"><stop offset="0" stop-color="#fff" stop-opacity="0"/><stop offset="0.74" stop-color="#fff" stop-opacity="0.74"/><stop offset="1" stop-color="#fff"/></linearGradient><linearGradient id="c" x1="-664.37" y1="40.6" x2="-664.37" y2="39.6" gradientTransform="matrix(2740.17, 0, 0, -1621.01, 1821856.14, 65812.25)" gradientUnits="userSpaceOnUse"><stop offset="0" stop-color="#374753" stop-opacity="0"/><stop offset="0.66" stop-color="#1a2128" stop-opacity="0.66"/><stop offset="1" stop-color="#0b0e11"/></linearGradient><linearGradient id="d" x1="-664.91" y1="40.87" x2="-664.91" y2="39.87" gradientTransform="matrix(0, -1580.28, -2749.59, 0, 112375.68, -1049951.62)" gradientUnits="userSpaceOnUse"><stop offset="0" stop-color="#374753" stop-opacity="0"/><stop offset="0.66" stop-color="#374753"/><stop offset="1" stop-color="#374753"/></linearGradient><linearGradient id="e" x1="-664.37" y1="40.63" x2="-664.37" y2="39.55" gradientTransform="matrix(2740, 0, 0, -1731, 1821742.63, 70322)" gradientUnits="userSpaceOnUse"><stop offset="0" stop-color="#fff"/><stop offset="0.43" stop-color="#374753"/><stop offset="1" stop-color="gray" stop-opacity="0.5"/></linearGradient><linearGradient id="f" x1="-664.37" y1="40.6" x2="-664.37" y2="39.53" gradientTransform="matrix(2740, 0, 0, -1643, 1821742.63, 66714)" xlink:href="#e"/></defs><g clip-path="url(#a)"><g opacity="0.6"><rect x="-5.29" width="2740" height="1814" fill="url(#b)"/><rect x="-4.79" y="0.5" width="2739" height="1813" fill="none" stroke="#707070"/></g><path d="M-5.43,0H2734.74V1621H-5.43Z" opacity="0.22" fill="url(#c)" style="isolation:isolate"/><path d="M-5.43,1580.28V0H2744.16V1580.28Z" fill="url(#d)"/><rect x="-5.29" width="2740" height="1731" fill="url(#e)"/><rect x="-5.29" width="2740" height="1643" fill="url(#f)"/></g><g opacity="0.39"><path d="M-16.29,510.39C216.86,794.46,841.39,842,1059.11,767.65,1233,708.3,1397.21,593,1580.45,606,1723,616,1846.69,702.5,1978.09,758.57c256.85,109.62,547.44,114.84,785.82,59.74" fill="none" stroke="#fff" stroke-linecap="round" stroke-linejoin="round" stroke-width="9.42" stroke-dasharray="0 0 0 10.67 0 0"/><path d="M-16.29,529c126,149.39,364.54,212.67,604.44,245.8,196.84,27.18,384.37,21.3,488.31-9.2,181.43-52.7,349.15-157.38,529.59-144.59q20.78,1.49,40.52,4.25c124.67,17.62,215.91,84.27,323.82,130.4,13.28,5.69,27.84,11.42,44.8,17.48,54.94,19.88,110.73,36.58,167.12,49,198.13,43.43,404.17,36.47,581.59-3.8" fill="none" stroke="#fff" stroke-linecap="round" stroke-linejoin="round" stroke-width="9.03" stroke-dasharray="0 0 0 10.67 0 0"/><path d="M-16.29,547.6C109.79,693,346.81,735.16,598.14,767.86c199.08,25.9,387.86,22.2,495.66-4.34C1282.71,717,1454,623.4,1631.65,636c14.23,1,27.94,2.2,41.11,3.69,123.26,13.95,193.1,71.51,289.93,113,10.63,4.58,23.73,9.58,41.47,15.76,56,19.51,112.29,37.43,169.43,50.51,199.78,45.48,409.72,39.6,590.32-.67" fill="none" stroke="#fff" stroke-linecap="round" stroke-linejoin="round" stroke-width="8.64" stroke-dasharray="0 0 0 10.67 0 0"/><path d="M-16.29,566.2C109.88,707.56,345.36,728.71,608.14,760.93c201.29,24.68,391.4,23.27,503,.52,196.49-40.06,371.25-122.86,546.1-110.38,14.61,1.06,28.52,2,41.69,3.13,121.83,10.32,170.4,58.51,256.06,95.57,8,3.46,19.59,7.79,38.12,14.06,57,19.26,113.85,38.26,171.73,52,201.44,47.51,415.28,42.72,599.06,2.45" fill="none" stroke="#fff" stroke-linecap="round" stroke-linejoin="round" stroke-width="8.25" stroke-dasharray="0 0 0 10.67 0 0"/><path d="M-16.29,584.81C110,722.14,343.9,722.31,618.14,754c203.49,23.51,395,24.36,510.36,5.39,204.08-33.56,382.3-105.6,554.35-93.27,15,1.09,29.09,1.82,42.27,2.56,120.38,6.74,147.69,45.55,222.18,78.17,5.34,2.34,15.45,6,34.77,12.33,57.93,19,115.42,39.1,174,53.56,203.09,49.55,420.83,45.84,607.79,5.58" fill="none" stroke="#fff" stroke-linecap="round" stroke-linejoin="round" stroke-width="7.86" stroke-dasharray="0 0 0 10.67 0 0"/><path d="M-16.29,603.41C110.05,736.73,342.43,716,628.14,747.06c205.69,22.39,398.52,25.46,517.71,10.24,211.68-27,393.35-88.34,562.6-76.16,15.36,1.12,29.66,1.65,42.85,2,118.9,3.2,125.15,32.2,188.3,60.76,2.7,1.22,11.32,4.2,31.43,10.62,58.91,18.81,117,40,176.36,55.08,204.75,51.59,426.38,49,616.52,8.7" fill="none" stroke="#fff" stroke-linecap="round" stroke-linejoin="round" stroke-width="7.47" stroke-dasharray="0 0 0 10.67 0 0"/><path d="M-16.29,622C110.14,751.32,341,709.66,638.14,740.13c207.88,21.32,402.08,26.59,525.06,15.11,219.3-20.47,404.4-71.09,570.86-59.06,15.73,1.16,30.22.92,43.43,1.44,117.3,4.64,101.87,20.48,154.42,43.35,0,.16,7.17,2.4,28.08,8.9,59.88,18.61,118.54,40.79,178.66,56.6,206.4,53.63,431.94,52.09,625.26,11.84" fill="none" stroke="#fff" stroke-linecap="round" stroke-linejoin="round" stroke-width="7.09" stroke-dasharray="0 0 0 10.67 0 0"/><path d="M-16.29,640.62C110.22,765.9,339.47,703.4,648.14,733.2c210.06,20.28,405.66,27.73,532.41,20,226.92-13.89,415.45-53.83,579.11-42a411.61,411.61,0,0,0,44,.88c115.87-3.7,79.07,7.73,120.54,25.95-2.62-.95,3,.61,24.74,7.18,60.84,18.42,120.1,41.63,181,58.12,208.06,55.67,437.49,55.22,634,15" fill="none" stroke="#fff" stroke-linecap="round" stroke-linejoin="round" stroke-width="6.7" stroke-dasharray="0 0 0 10.67 0 0"/><path d="M-16.29,659.22c126.6,121.27,354.27,38,674.43,67,212.24,19.27,409.23,28.88,539.75,24.83,234.56-7.27,426.5-36.57,587.37-24.85a327,327,0,0,0,44.6.32c114.34-7.07,56.26-5,86.66,8.53-5.27-2.05-1.1-1.16,21.4,5.47,61.8,18.23,121.66,42.47,183.27,59.65,209.71,57.7,443,58.34,642.72,18.09" fill="none" stroke="#fff" stroke-linecap="round" stroke-linejoin="round" stroke-width="6.31" stroke-dasharray="0 0 0 10.67 0 0"/><path d="M-16.29,677.83C110.4,795.08,336.48,691,668.13,719.34,882.56,737.64,1081,748,1215.24,749c242.18,1.87,437.56-19.32,595.62-7.75a270.48,270.48,0,0,0,45.18-.24c112.8-10.39,33.45-17.79,52.77-8.88-7.91-3.16-5.24-2.94,18.06,3.76,62.76,18,123.22,43.31,185.58,61.16,211.37,59.75,448.6,61.47,651.46,21.22" fill="none" stroke="#fff" stroke-linecap="round" stroke-linejoin="round" stroke-width="5.92" stroke-dasharray="0 0 0 10.67 0 0"/><path d="M-16.29,696.43c126.77,113.23,351.27-11.52,694.42,16,216.6,17.36,416.39,31.23,554.46,34.56,249.81,6,448.6-2.05,603.87,9.36a232.48,232.48,0,0,0,45.76-.8c111.26-13.65,10.65-30.54,18.9-26.28-10.56-4.27-9.39-4.72,14.71,2,63.72,17.87,124.79,44.15,187.89,62.69,213,61.78,454.16,64.59,660.19,24.34" fill="none" stroke="#fff" stroke-linecap="round" stroke-linejoin="round" stroke-width="5.53" stroke-dasharray="0 0 0 10.67 0 0"/><path d="M-16.29,715c126.86,109.21,349.77-36.21,704.42-9.57,218.78,16.44,420,32.42,561.81,39.42,257.44,12.71,459.65,15.2,612.12,26.47A203.52,203.52,0,0,0,1908.4,770c109.72-16.86-12.23-43-15-43.69-13.78-3.69-13.53-6.49,11.37.32,64.68,17.72,126.35,45,190.19,64.22,214.68,63.82,459.71,67.71,668.93,27.47" fill="none" stroke="#fff" stroke-linecap="round" stroke-linejoin="round" stroke-width="5.14" stroke-dasharray="0 0 0 10.67 0 0"/><path d="M-16.29,733.64c127,105.2,348.27-60.85,714.42-35.1,221,15.54,423.52,33.62,569.16,44.28,265,19.41,470.7,32.47,620.38,43.57,18,1.38,33.58.55,46.92-1.92,108.17-20-35.08-55.79-48.87-61.1-16-6.16-17.67-8.27,8-1.39,65.63,17.55,127.91,45.83,192.5,65.73,216.34,65.86,465.26,70.84,677.66,30.6" fill="none" stroke="#fff" stroke-linecap="round" stroke-linejoin="round" stroke-width="4.76" stroke-dasharray="0 0 0 10.67 0 0"/><path d="M-16.29,752.24c127,101.18,346.77-85.45,724.42-60.63,223.12,14.66,427.09,34.83,576.51,49.15,272.67,26.12,481.75,49.71,628.63,60.67,18.38,1.41,34.15.41,47.5-2.49,106.65-23.12-57.87-68.58-82.75-78.51-18.58-7.41-21.81-10,4.68-3.1,66.59,17.4,129.47,46.67,194.81,67.25,218,67.9,470.82,74,686.4,33.73" fill="none" stroke="#fff" stroke-linecap="round" stroke-linejoin="round" stroke-width="4.37" stroke-dasharray="0 0 0 10.67 0 0"/><path d="M-16.29,770.85C110.83,868,329,660.83,718.12,684.68c225.3,13.8,430.66,36.05,583.86,54,280.29,32.85,492.81,67,636.89,77.78,18.75,1.44,34.71.28,48.08-3.05,105.15-26.18-80.66-81.38-116.62-95.92-21.21-8.58-26-11.8,1.33-4.82,67.54,17.26,131,47.51,197.12,68.78,219.65,69.93,476.37,77.08,695.13,36.85" fill="none" stroke="#fff" stroke-linecap="round" stroke-linejoin="round" stroke-width="3.98" stroke-dasharray="0 0 0 10.67 0 0"/><path d="M-16.29,789.45C110.92,882.59,327.46,654.9,728.12,677.74c227.47,13,434.22,37.28,591.21,58.87,287.89,39.6,503.86,84.24,645.14,94.89,19.13,1.47,35.28.15,48.67-3.61,103.65-29.19-103.46-94.17-150.51-113.33-23.84-9.71-30.1-13.56-2-6.54,68.48,17.12,132.59,48.36,199.42,70.3,221.3,72,481.93,80.21,703.86,40" fill="none" stroke="#fff" stroke-linecap="round" stroke-linejoin="round" stroke-width="3.59" stroke-dasharray="0 0 0 10.67 0 0"/><path d="M-16.29,808.06C111,897.18,326,649,738.12,670.81c229.64,12.14,437.78,38.51,598.56,63.74,295.49,46.36,514.91,101.49,653.39,112,19.51,1.51,35.85,0,49.25-4.17,102.19-32.16-126.25-107-184.38-130.74-26.49-10.84-34.26-15.32-5.35-8.25,69.44,17,134.15,49.2,201.72,71.82,223,74,487.49,83.34,712.6,43.11" fill="none" stroke="#fff" stroke-linecap="round" stroke-linejoin="round" stroke-width="3.2" stroke-dasharray="0 0 0 10.67 0 0"/><path d="M-16.29,826.66c127.38,85.11,340.74-183.49,764.41-162.78,231.82,11.33,441.33,39.75,605.91,68.6,303.08,53.13,526,118.75,661.64,129.1,19.89,1.55,36.43-.06,49.83-4.73,100.75-35.09-149-119.85-218.26-148.15-29.11-12-38.4-17.08-8.7-10,70.39,16.86,135.72,50,204,73.35,224.62,76,493,86.46,721.33,46.23" fill="none" stroke="#fff" stroke-linecap="round" stroke-linejoin="round" stroke-width="2.82" stroke-dasharray="0 0 0 10.67 0 0"/><path d="M-16.29,845.27C111.18,926.36,322.94,637.36,758.12,657c234,10.53,444.88,41,613.26,73.46,310.66,59.91,537,136,669.9,146.2,20.26,1.58,37-.17,50.41-5.3,99.34-38-171.82-132.6-252.14-165.55-31.77-13.11-42.55-18.84-12-11.69,71.33,16.73,137.27,50.88,206.34,74.87,226.27,78.09,498.59,89.58,730.06,49.36" fill="none" stroke="#fff" stroke-linecap="round" stroke-linejoin="round" stroke-width="2.43" stroke-dasharray="0 0 0 10.67 0 0"/><path d="M-16.29,863.87C111.26,941,321.44,631.58,768.12,650c236.16,9.75,448.36,42.54,620.61,78.32,318.12,67.26,548.05,153.26,678.15,163.31,20.64,1.61,37.58-.27,51-5.86,98-40.84-194.62-145.36-286-183-34.41-14.22-46.7-20.6-15.39-13.4,72.29,16.61,138.84,51.72,208.65,76.39,227.93,80.13,504.15,92.71,738.8,52.49" fill="none" stroke="#fff" stroke-linecap="round" stroke-linejoin="round" stroke-width="2.04" stroke-dasharray="0 0 0 10.67 0 0"/><path d="M-16.29,882.47c127.64,73.06,336.22-256.64,794.4-239.38,238.34,9,451.93,43.72,628,83.18,325.72,73.93,559.11,170.52,686.4,180.41,21,1.65,38.18-.36,51.58-6.42,96.61-43.67-217.43-158.11-319.9-200.36-37.06-15.33-50.84-22.35-18.73-15.12,73.24,16.48,140.4,52.56,211,77.91,229.58,82.17,509.7,95.83,747.53,55.62" fill="none" stroke="#fff" stroke-linecap="round" stroke-linejoin="round" stroke-width="1.65" stroke-dasharray="0 0 0 10.67 0 0"/><path d="M-16.29,901.08c127.72,69,334.7-280.18,804.4-264.93,240.5,8.62,455.48,44.9,635.31,88.05,333.31,80.59,570.16,187.78,694.65,197.52,21.4,1.68,38.77-.45,52.16-7C2265.54,868.25,1930,743.87,1816.45,697c-39.71-16.43-55-24-22.07-16.83,74.16,16.48,142,53.4,213.26,79.43,231.24,84.21,515.25,99,756.26,58.75" fill="none" stroke="#fff" stroke-linecap="round" stroke-linejoin="round" stroke-width="1.26" stroke-dasharray="0 0 0 10.67 0 0"/><path d="M-16.29,919.68c127.81,65,333.21-304.85,814.4-290.46,242.69,7.67,459,46.09,642.66,92.91,340.9,87.26,581.21,205,702.91,214.62,21.77,1.73,39.36-.53,52.74-7.54,94-49.28-263.05-183.62-387.67-235.18-42.36-17.54-59.14-25.82-25.41-18.55,75.12,16.32,143.52,54.24,215.57,81,232.9,86.24,520.81,102.08,765,61.87" fill="none" stroke="#fff" stroke-linecap="round" stroke-linejoin="round" stroke-width="0.87" stroke-dasharray="0 0 0 10.67 0 0"/><path d="M-16.29,938.28c127.9,61,331.72-329.51,824.4-316,785,21.54,1290.9,390.72,1414.49,321.4s-588.92-302.27-450.3-272.85c76.08,16.14,145.09,55.08,217.88,82.48,234.55,88.28,526.36,105.2,773.73,65" fill="none" stroke="#fff" stroke-linecap="round" stroke-linejoin="round" stroke-width="0.49" stroke-dasharray="0 0 0 10.67 0 0"/><path d="M2763.91,818.31c-245.36,41.82-530.75,24.54-764.46-64.25-71.75-27.19-140-65.59-215.3-82.34-135.94-29.88,540.13,187.74,413.62,252.48-75.9,38.53-282.09-74.09-600.87-166-220.77-63.66-486.44-118.71-794.31-123.72-477.54-8.69-677.82,366.31-816.73,305" fill="none" stroke="#fff" stroke-linecap="round" stroke-linejoin="round" stroke-width="0.65" stroke-dasharray="0 0 0 10.67 0 0"/><path d="M2763.91,818.31c-243.36,43.44-522.31,25.81-755.2-63.5-70.7-27-138.21-65-212.73-82.19-133.18-30.69,506.56,172.32,377,232.09-78,35.95-281-74.59-594.4-154.85-222.64-57-482.47-101.89-781.48-103.2-462.4-3.86-659.14,355.62-809.07,294" fill="none" stroke="#fff" stroke-linecap="round" stroke-linejoin="round" stroke-width="0.81" stroke-dasharray="0 0 0 10.67 0 0"/><path d="M2763.91,818.31C2522.56,863.37,2250,845.38,2018,755.56c-69.65-26.78-136.43-64.36-210.16-82-130.47-31.29,472.86,156.7,340.28,211.71C2068,918.46,1868,810.43,1560.2,741.54c-224.71-50.3-478.52-84.2-768.67-82.7-447.25,2.32-640.45,344.93-801.4,283" fill="none" stroke="#fff" stroke-linecap="round" stroke-linejoin="round" stroke-width="0.97" stroke-dasharray="0 0 0 10.67 0 0"/><path d="M2763.91,818.31c-239.35,46.68-505.44,28.33-736.66-62-68.61-26.57-134.64-63.69-207.59-81.9-127.75-31.89,439.14,141,303.6,191.32-82.26,30.51-279.42-74.67-581.41-132.52-227-43.48-474.56-67.1-755.85-62.18C353.92,678.58,164.23,1005.26-7.73,943" fill="none" stroke="#fff" stroke-linecap="round" stroke-linejoin="round" stroke-width="1.13" stroke-dasharray="0 0 0 10.67 0 0"/><path d="M2763.91,818.31c-237.34,48.3-497,29.6-727.39-61.25-67.56-26.37-132.85-63-205-81.75-125-32.48,405.4,125.37,266.93,170.93C2014,874,1819.45,772,1523.5,724.89c-229.37-36.53-470.58-50-743-41.67C363.57,696,177.39,1006.75-5.58,944.16" fill="none" stroke="#fff" stroke-linecap="round" stroke-linejoin="round" stroke-width="1.3" stroke-dasharray="0 0 0 10.67 0 0"/><path d="M2763.91,818.31c-235.34,49.91-488.38,30.38-718.12-60.5-66.47-26.3-131.06-62.33-202.45-81.61C1721,643.16,2215,785.88,2073.59,826.75c-86.59,25-278.72-73.43-568.44-110.19-231.94-29.43-466.59-32.95-730.2-21.16-401.72,18-584.4,312.84-778.39,249.94" fill="none" stroke="#fff" stroke-linecap="round" stroke-linejoin="round" stroke-width="1.46" stroke-dasharray="0 0 0 10.67 0 0"/><path d="M2763.91,818.31c-233.33,51.53-479.92,31.6-708.85-59.75-65.42-26.1-129.28-61.64-199.88-81.46-119.61-33.59,337.88,94,193.58,130.16-88.78,22.27-278.63-72.27-562-99-234.66-22.16-462.6-15.9-717.39-.65C382.9,730.72,203.7,1009.74-1.3,946.51" fill="none" stroke="#fff" stroke-linecap="round" stroke-linejoin="round" stroke-width="1.62" stroke-dasharray="0 0 0 10.67 0 0"/><path d="M2763.91,818.31c-231.32,53.15-471.46,32.81-699.58-59C2000,733.41,1936.84,698.37,1867,678c-116.9-34.13,304.1,78.24,156.9,109.78-91,19.5-278.67-70.75-555.46-87.86C1231,685.22,1009.86,701,763.9,719.77,392.58,748,216.86,1011.23.84,947.69" fill="none" stroke="#fff" stroke-linecap="round" stroke-linejoin="round" stroke-width="1.78" stroke-dasharray="0 0 0 10.67 0 0"/><path d="M2763.91,818.31c-229.32,54.77-463,34-690.31-58.25-63.32-25.71-125.71-60.23-194.74-81.17-114.2-34.65,270.32,62.48,120.23,89.4-93.16,16.71-278.83-68.86-549-76.7-240.43-7-454.59,18.14-691.74,40.37C402.27,765.33,230,1012.72,3,948.87" fill="none" stroke="#fff" stroke-linecap="round" stroke-linejoin="round" stroke-width="1.95" stroke-dasharray="0 0 0 10.67 0 0"/><path d="M2763.91,818.31c-227.31,56.38-454.56,35.27-681-57.5-62.27-25.5-123.92-59.51-192.17-81-111.5-35.15,236.53,46.7,83.55,69-95.35,13.9-279-66.61-542.48-65.54-243.45,1-450.58,35.13-678.92,60.88C412,782.57,243.17,1014.21,5.13,950" fill="none" stroke="#fff" stroke-linecap="round" stroke-linejoin="round" stroke-width="2.11" stroke-dasharray="0 0 0 10.67 0 0"/><path d="M2763.91,818.31c-225.31,58-446.11,36.51-671.78-56.75-61.22-25.3-122.14-58.78-189.6-80.88-108.8-35.64,202.75,30.9,46.88,48.63-97.54,11.1-279.33-64-536-54.38-246.5,9.23-446.55,52.1-666.1,81.39-325.62,43.45-491,259.38-740,194.89" fill="none" stroke="#fff" stroke-linecap="round" stroke-linejoin="round" stroke-width="2.27" stroke-dasharray="0 0 0 10.67 0 0"/><path d="M2763.91,818.31c-223.3,59.62-437.66,37.77-662.5-56-60.18-25.1-120.36-58-187-80.74-106.1-36.11,168.95,15.09,10.2,28.25-99.74,8.27-279.61-61-529.51-43.21-249.56,17.77-442.52,69-653.28,101.9C431.42,816.92,269.49,1017.19,9.41,952.39" fill="none" stroke="#fff" stroke-linecap="round" stroke-linejoin="round" stroke-width="2.43" stroke-dasharray="0 0 0 10.67 0 0"/><path d="M2763.91,818.31c-221.3,61.24-429.22,39-653.24-55.25-59.13-24.89-118.58-57.3-184.45-80.59-103.42-36.56,135.16-.75-26.47,7.86-101.94,5.43-279.88-57.7-523-32-252.61,26.65-438.49,85.92-640.45,122.4C441.14,834,282.64,1018.69,11.55,953.56" fill="none" stroke="#fff" stroke-linecap="round" stroke-linejoin="round" stroke-width="2.6" stroke-dasharray="0 0 0 10.67 0 0"/><path d="M2763.91,818.31c-219.29,62.86-420.79,40.3-644-54.5-58.08-24.68-116.81-56.55-181.88-80.45-100.73-37,101.37-16.6-63.15-12.52-104.13,2.58-280.09-54.08-516.53-20.88-255.6,35.89-434.46,102.77-627.64,142.92C450.87,851,295.8,1020.18,13.7,954.73" fill="none" stroke="#fff" stroke-linecap="round" stroke-linejoin="round" stroke-width="2.76" stroke-dasharray="0 0 0 10.67 0 0"/><path d="M2763.91,818.31c-217.29,64.47-412.36,41.58-634.7-53.75-57.05-24.46-115-55.77-179.32-80.3-98.05-37.42,67.6-32.48-99.82-32.91-106.32-.27-280.22-50.17-510-9.72-258.5,45.49-430.42,119.58-614.81,163.43C460.59,868,309,1021.67,15.83,955.91" fill="none" stroke="#fff" stroke-linecap="round" stroke-linejoin="round" stroke-width="2.92" stroke-dasharray="0 0 0 10.67 0 0"/><path d="M2763.91,818.31c-215.28,66.1-403.93,42.88-625.43-53-56-24.24-113.28-55-176.74-80.16-95.39-37.81,33.81-48.36-136.5-53.29-108.51-3.14-280.23-46-503.56,1.45-261.25,55.48-426.39,136.33-602,183.94C470.3,884.86,322.11,1023.16,18,957.09" fill="none" stroke="#fff" stroke-linecap="round" stroke-linejoin="round" stroke-width="3.08" stroke-dasharray="0 0 0 10.67 0 0"/><path d="M2763.91,818.31C2550.64,886,2368.4,862.5,2147.75,766.06c-55-24-111.52-54.2-174.17-80-92.73-38.2,0-64.26-173.17-73.68-110.7-6-280.1-41.56-497.07,12.61C1039.5,690.85,881,778,714.16,829.44,480,901.65,335.27,1024.66,20.12,958.27" fill="none" stroke="#fff" stroke-linecap="round" stroke-linejoin="round" stroke-width="3.25" stroke-dasharray="0 0 0 10.67 0 0"/><path d="M2763.91,818.31c-211.26,69.33-387.1,45.5-606.89-51.5-53.92-23.8-109.77-53.4-171.6-79.87-90.07-38.56-33.72-80.16-209.85-94.06C1662.7,584,1495.78,556,1285,616.65c-266.19,76.65-418.4,169.64-576.35,225-219,76.71-360.21,184.53-686.37,117.82" fill="none" stroke="#fff" stroke-linecap="round" stroke-linejoin="round" stroke-width="3.41" stroke-dasharray="0 0 0 10.67 0 0"/><path d="M2763.91,818.31c-209.26,71-378.88,47.26-597.62-50.75-52.93-23.47-108-52.57-169-79.71-87.43-38.92-67.48-96.09-246.52-114.45-115-11.8-279.29-32.1-484.1,34.93C998.35,696.15,852.19,794.5,703.11,853.8c-203.85,81.1-341.52,173.84-678.7,106.81" fill="none" stroke="#fff" stroke-linecap="round" stroke-linejoin="round" stroke-width="3.57" stroke-dasharray="0 0 0 10.67 0 0"/><path d="M2763.91,818.31c-207.25,72.57-370.44,48.52-588.35-50-51.89-23.27-106.3-51.74-166.46-79.57-84.81-39.25-101.23-112-283.2-134.84-117.22-14.7-278.56-27.14-477.61,46.1C978.21,699.38,837.73,802.61,697.58,866c-188.8,85.37-322.84,163.15-671,95.8" fill="none" stroke="#fff" stroke-linecap="round" stroke-linejoin="round" stroke-width="3.73" stroke-dasharray="0 0 0 10.67 0 0"/><path d="M2763.91,818.31c-205.25,74.18-362,49.78-579.08-49.25C2134,746,2080.25,718.18,2020.94,689.64c-82.19-39.56-134.93-128.25-319.88-155.22-119.35-17.8-277.59-22.07-471.11,57.26C958.4,703,823.2,810.64,692.05,878.17,518.2,967.7,387.89,1030.62,28.69,963" fill="none" stroke="#fff" stroke-linecap="round" stroke-linejoin="round" stroke-width="3.9" stroke-dasharray="0 0 0 10.67 0 0"/><path d="M2763.91,818.31c-203.25,75.8-353.57,51.05-569.81-48.5-49.8-22.85-102.87-50-161.32-79.28-79.59-39.85-168.68-144-356.55-175.6C1554.7,494.32,1399.86,498,1211.6,583.36,939,707,808.55,818.56,686.53,890.36c-159,93.58-285.48,141.76-655.7,73.78" fill="none" stroke="#fff" stroke-linecap="round" stroke-linejoin="round" stroke-width="4.06" stroke-dasharray="0 0 0 10.67 0 0"/><path d="M2763.91,818.31c-246.79,94.94-407.33,35.69-719.29-126.88-126.93-66.15-385.44-348.55-851.37-116.4C569.91,885.63,711.89,1086.93,33,965.32" fill="none" stroke="#fff" stroke-linecap="round" stroke-linejoin="round" stroke-width="4.22" stroke-dasharray="0 0 0 10.67 0 0"/></g></svg>