<svg xmlns="http://www.w3.org/2000/svg" viewBox="0 0 38 38"><path d="M19.78,12.65a2.68,2.68,0,0,1,1.71-2.49,10.47,10.47,0,0,0-1.28-3.07,2.69,2.69,0,0,1-1.08.23,2.66,2.66,0,0,1-2.66-2.66,2.69,2.69,0,0,1,.23-1.08A10.47,10.47,0,0,0,13.63,2.3a2.66,2.66,0,0,1-5,0A10.41,10.41,0,0,0,5.58,3.58,2.66,2.66,0,0,1,4.24,7.09a2.7,2.7,0,0,1-2.18,0A10.66,10.66,0,0,0,.79,10.17a2.66,2.66,0,0,1,1.53,3.44A2.66,2.66,0,0,1,.8,15.14a10.52,10.52,0,0,0,1.28,3.08,2.66,2.66,0,0,1,3.5,3.51A10.9,10.9,0,0,0,8.66,23a2.66,2.66,0,0,1,5,0,10.66,10.66,0,0,0,3.08-1.27,2.66,2.66,0,0,1,3.51-3.51,10.8,10.8,0,0,0,1.28-3.08A2.69,2.69,0,0,1,19.78,12.65ZM11.19,17a4.32,4.32,0,1,1,4.32-4.32h0A4.33,4.33,0,0,1,11.2,17Z" fill="#fff" stroke="#002e5f" stroke-width="1.4"/><path d="M19.88,10.79H35.17a2.11,2.11,0,0,1,2.11,2.09v13.9a2.09,2.09,0,0,1-2.11,2.08H19.88a2.09,2.09,0,0,1-2.11-2.08V12.88A2.11,2.11,0,0,1,19.88,10.79Z" fill="#fff"/><path d="M18.53,24H36.59v5.27H18.53Zm0-6.14H36.59v5.27H18.53Zm0-6.15H36.59V17H18.53Zm-.22-.94a.82.82,0,0,0-.75.83V29.38a.83.83,0,0,0,.83.84h8.33V33.9h-4a.84.84,0,1,0,0,1.68H32.3a.84.84,0,1,0,0-1.68H28.39V30.22h8.33a.84.84,0,0,0,.84-.83h0V11.6a.84.84,0,0,0-.84-.83H18.31Z" fill="#002e5f" stroke="#002e5f" stroke-miterlimit="10" stroke-width="0.31"/><circle cx="34.42" cy="20.48" r="1.06" fill="#df5658"/><path d="M34.42,25.59a1.07,1.07,0,1,0,1.06,1.07h0a1.07,1.07,0,0,0-1.06-1.07Z" fill="#df5658" fill-rule="evenodd"/><circle cx="34.42" cy="14.17" r="1.06" fill="#df5658"/></svg>