<svg xmlns="http://www.w3.org/2000/svg" viewBox="0 0 71.52 28.45"><path d="M21.56,21.56h-9.9c6.05-4,11.22-10.85,4.25-14.94C22.36,13.41,11.49,19.54,4,21.56H0V3.75a34.06,34.06,0,0,1,9.46,0A51.52,51.52,0,0,0,0,2V0H16.51c-6,4-11.13,10.82-4.18,14.9-5.66-6,2.18-11.4,9.23-14Z" fill="#FFFFFF"/><path d="M64.86,13.34c0,2.71,0,4.92-.14,6.1-.09.81-.25,1.29-.81,1.4a4.79,4.79,0,0,1-1,.11c-.34,0-.45.08-.45.23s.2.27.56.27c1.12,0,2.89-.08,3.53-.08s2.52.08,4.37.08c.3,0,.53-.08.53-.27S71.3,21,71,21a13.55,13.55,0,0,1-1.43-.11c-.84-.11-1-.62-1.12-1.37-.11-1.21-.11-3.42-.11-6.13v-5c0-4.26,0-5,.06-5.94S68.68,1,69.4.88a4,4,0,0,1,.84-.09c.28,0,.45-.05.45-.28S70.47.29,70.1.29c-1.06,0-2.71.08-3.41.08S64.13.29,63.07.29c-.45,0-.67.06-.67.22s.16.28.45.28a3.38,3.38,0,0,1,1,.12c.62.14.9.61.95,1.56s.06,1.68.06,5.94Z" fill="#FFFFFF"/><path d="M.09,28.27v-.05c.16,0,.25-.13.25-.4V24.88c0-.28-.1-.4-.25-.4H1.28c-.19,0-.27.14-.27.42v2.91c0,.35.11.41.27.41v.05Z" fill="#FFFFFF"/><path d="M7.47,24.87v3.58l-2.78-3.4v2.79c0,.23.11.38.28.38v.05H4.11v-.05c.18,0,.26-.08.26-.37V24.91c0-.31-.11-.43-.26-.43h.94L7.14,27V24.89c0-.3-.11-.41-.27-.41h.84C7.52,24.53,7.47,24.6,7.47,24.87Z" fill="#FFFFFF"/><path d="M13.61,25h0c0-.17,0-.22-.76-.22h-.39v3.06c0,.32.13.4.27.41v.05h-1.2v-.05c.19,0,.26-.13.26-.4v-3.1H11.3c-.55,0-.68,0-.68.2h0l-.13-.53h3.35l-.13.53Z" fill="#FFFFFF"/><path d="M18.87,28.27h-2.4v-.05c.16,0,.24-.12.24-.4v-3c0-.28-.13-.37-.27-.37h2.38l-.08.52h0c0-.18-.1-.22-.66-.22h-.64v1.43H18c.71,0,.67-.07.72-.21h.05v.75h-.05c0-.18-.15-.23-.72-.23h-.6v1.18c0,.27.08.3.36.3h.58a.87.87,0,0,0,.75-.3h.05l-.26.59Z" fill="#FFFFFF"/><path d="M23.8,25.49c0,.47-.29.81-.94.81h-.09V24.71H23a.74.74,0,0,1,.79.69v.09Zm1.32,2.78v-.05c-.09,0-.21-.08-.37-.31l-1-1.49a1,1,0,0,0,.74-1c0-1.16-1.34-1-1.53-1H21.83c.19,0,.27.16.27.4v2.94c0,.32-.1.38-.26.4v.05H23v-.05c-.16,0-.26-.06-.26-.41V26.58a1.82,1.82,0,0,0,.33,0l1.1,1.7Z" fill="#FFFFFF"/><path d="M31.06,24.87v3.58l-2.77-3.4v2.79c0,.23.11.38.27.38v.05h-.85v-.05c.17,0,.26-.08.26-.37V24.91c0-.31-.12-.43-.26-.43h.94L30.74,27V24.89c0-.3-.11-.41-.28-.41h.85C31.12,24.53,31.06,24.6,31.06,24.87Z" fill="#FFFFFF"/><path d="M36.08,26.68H34.93l.57-1.57Zm1.47,1.59v-.05c-.14,0-.22-.12-.28-.27l-1.33-3.51h-.73s.22,0,.13.28L34.15,28a.31.31,0,0,1-.28.25v.05h.73v-.05c-.12,0-.17-.13-.13-.26l.36-1h1.35l.36,1c.05.14,0,.27-.15.27v0Z" fill="#FFFFFF"/><path d="M42.65,25h-.06c0-.17-.05-.22-.76-.22h-.39v3.06c0,.32.13.4.27.41v.05h-1.2v-.05c.19,0,.26-.13.26-.4v-3.1h-.49c-.55,0-.68,0-.68.2h-.05l-.13-.53h3.35l-.12.53Z" fill="#FFFFFF"/><path d="M45.48,28.27v-.05c.15,0,.24-.13.24-.4V24.88c0-.28-.1-.4-.24-.4h1.18c-.19,0-.26.14-.26.42v2.91c0,.35.1.41.26.41v.05Z" fill="#FFFFFF"/><path d="M52.86,26.33c0,1.39-.84,1.72-1.3,1.72-1,0-1.33-.91-1.33-1.67,0-1.21.58-1.7,1.33-1.7S52.86,25.5,52.86,26.33Zm.71,0a2,2,0,0,0-2-2,1.9,1.9,0,0,0-2.06,1.73,2.43,2.43,0,0,0,0,.27,2,2,0,1,0,4,0Z" fill="#FFFFFF"/><path d="M59.8,24.87v3.58L57,25.05v2.79c0,.23.11.38.27.38v.05h-.86v-.05c.18,0,.26-.08.26-.37V24.91c0-.31-.11-.43-.25-.43h.94L59.47,27V24.89c0-.3-.1-.41-.27-.41H60c-.19.05-.24.12-.24.39Z" fill="#FFFFFF"/><path d="M64.82,26.68H63.67l.57-1.57Zm1.47,1.59v-.05c-.15,0-.22-.12-.28-.27l-1.34-3.51H64s.21,0,.13.28L62.88,28c-.05.15-.15.25-.27.25v.05h.72v-.05c-.12,0-.17-.13-.12-.26l.36-1h1.35l.35,1c.06.14,0,.27-.14.27v0Z" fill="#FFFFFF"/><path d="M71.32,28.27H68.94v-.05c.15,0,.24-.12.24-.4V24.88c0-.25-.1-.4-.27-.4H70.1c-.08,0-.24.05-.24.39v2.85c0,.21.1.25.3.25h.42c.44,0,.8-.07.94-.31h0l-.25.59Z" fill="#FFFFFF"/><path d="M25.78,13.23c0,2.6,0,4.83-.14,6-.11.82-.26,1.44-.82,1.56a4.79,4.79,0,0,1-1,.11c-.34,0-.45.09-.45.23s.19.28.56.28c1.13,0,2.92-.08,3.46-.08s2.51.08,4.15.08c.37,0,.57-.08.57-.28s-.12-.23-.34-.23-1-.06-1.39-.11c-.85-.12-1-.74-1.1-1.56-.14-1.19-.14-3.42-.14-6.05v-11c0-.6,0-.69.46-.77a7.63,7.63,0,0,1,1.91,0,4,4,0,0,1,1.74.7,4.32,4.32,0,0,1,1.83,3A6.44,6.44,0,0,1,34,10.52a5.57,5.57,0,0,1-1.63,1.26,12.33,12.33,0,0,1-1.86.72c-.24.1-.58.22-.69.28s-.16.17.16.16a18,18,0,0,0,1.91-.22.52.52,0,0,1,.48.18c.37.43,1.67,2.35,2.8,3.9C36.73,19,37.8,20.31,39,21a5.65,5.65,0,0,0,3,.54H44.7c.34,0,.54-.06.54-.28S45.12,21,44.9,21a5.16,5.16,0,0,1-.79-.08A5.69,5.69,0,0,1,40.94,19c-1.67-1.75-3.62-4.27-6.14-7.44,2.82-2,3.74-4.24,3.74-6.33a4.93,4.93,0,0,0-1.93-3.88A9.06,9.06,0,0,0,31.41.05c-.88,0-3,.08-4,.08C26.83.13,25,.05,23.54.05c-.42,0-.62.05-.62.25s.17.26.48.26a5.93,5.93,0,0,1,1.11.08c.93.2,1.16.65,1.21,1.61s.06,1.7.06,6v5Z" fill="#FFFFFF"/><path d="M55.83.38A27.09,27.09,0,0,0,58.62.24c.79-.08,1.46-.17,1.54.19s.59,2.78.59,3.22,0,.45-.25.45-.25-.11-.31-.34a3.28,3.28,0,0,0-.47-1C59.3,2.17,58.66,2,57,2s-4.53-.13-4.53-.13l.11,11.5c0,2.57,0,4.78.14,6,.09.78.25,1.4,1.09,1.51a13.55,13.55,0,0,0,1.43.11c.31,0,.45.08.45.23s-.23.27-.53.27c-1.85,0-3.61-.08-4.4-.08s-2.41.08-3.52.08c-.37,0-.56-.08-.56-.27s.11-.23.44-.23a4.79,4.79,0,0,0,1-.11c.56-.11.73-.73.81-1.54.14-1.18.14-3.39.14-6V1.86L44.91,2c-1.62.06-2.29.2-2.71.81a3.69,3.69,0,0,0-.48,1c-.06.23-.14.34-.31.34s-.25-.14-.25-.45.53-3,.59-3.22.84-.25,1.54-.19,1.87.13,2.8.13h9.74Z" fill="#FFFFFF"/></svg>